<?xml version="1.0" encoding="UTF-8" standalone="no"?>
<!DOCTYPE svg PUBLIC "-//W3C//DTD SVG 1.1//EN" "http://www.w3.org/Graphics/SVG/1.1/DTD/svg11.dtd">
<svg width="100%" height="100%" viewBox="0 0 2190 497" version="1.1" xmlns="http://www.w3.org/2000/svg" xmlns:xlink="http://www.w3.org/1999/xlink" xml:space="preserve" xmlns:serif="http://www.serif.com/" style="fill-rule:evenodd;clip-rule:evenodd;stroke-linejoin:round;stroke-miterlimit:2;">
    <g transform="matrix(1.6864,0,0,1.68651,-424.235,-2281.27)">
        <g transform="matrix(0.181014,0,0,0.181014,306.954,1217.44)">
            <path d="M508,747L582.112,1207.57C593.38,1277.59 626.438,1342.27 676.585,1392.41C726.732,1442.56 791.415,1475.62 861.433,1486.89L1322,1561L861.433,1635.11C791.415,1646.38 726.732,1679.44 676.585,1729.59C626.438,1779.73 593.38,1844.41 582.112,1914.43L508,2375L433.888,1914.43C422.62,1844.41 389.562,1779.73 339.415,1729.59C289.268,1679.44 224.585,1646.38 154.567,1635.11L-306,1561L154.567,1486.89C224.585,1475.62 289.268,1442.56 339.415,1392.41C389.562,1342.27 422.62,1277.59 433.888,1207.57L508,747Z" style="fill:white;"/>
        </g>
        <g transform="matrix(0.973624,0,0,0.973624,-0.80202,39.2879)">
            <path d="M1449.59,1434.28L1449.59,1566.29L1423.12,1566.29L1423.12,1434.28L1449.59,1434.28ZM1547.41,1566.29C1538.43,1566.29 1530.33,1564.75 1523.13,1561.67C1515.93,1558.59 1510.24,1554.16 1506.06,1548.38C1501.87,1542.59 1499.72,1535.76 1499.59,1527.88L1527.29,1527.88C1527.66,1533.18 1529.53,1537.36 1532.92,1540.44C1536.3,1543.52 1540.95,1545.05 1546.86,1545.05C1552.89,1545.05 1557.63,1543.61 1561.07,1540.72C1564.52,1537.82 1566.24,1534.04 1566.24,1529.36C1566.24,1525.55 1565.07,1522.41 1562.73,1519.94C1560.39,1517.48 1557.47,1515.55 1553.96,1514.13C1550.46,1512.71 1545.63,1511.14 1539.47,1509.42C1531.1,1506.96 1524.3,1504.53 1519.07,1502.13C1513.84,1499.73 1509.35,1496.1 1505.59,1491.24C1501.84,1486.38 1499.96,1479.88 1499.96,1471.76C1499.96,1464.13 1501.87,1457.48 1505.69,1451.82C1509.5,1446.16 1514.86,1441.82 1521.75,1438.81C1528.64,1435.79 1536.52,1434.28 1545.38,1434.28C1558.67,1434.28 1569.47,1437.51 1577.78,1443.98C1586.09,1450.44 1590.67,1459.45 1591.53,1471.02L1563.1,1471.02C1562.86,1466.59 1560.98,1462.93 1557.47,1460.04C1553.96,1457.14 1549.32,1455.7 1543.53,1455.7C1538.49,1455.7 1534.46,1456.99 1531.44,1459.58C1528.42,1462.16 1526.92,1465.91 1526.92,1470.84C1526.92,1474.28 1528.06,1477.14 1530.33,1479.42C1532.61,1481.7 1535.44,1483.55 1538.83,1484.96C1542.21,1486.38 1546.98,1488.01 1553.13,1489.85C1561.5,1492.31 1568.33,1494.78 1573.63,1497.24C1578.92,1499.7 1583.47,1503.39 1587.29,1508.32C1591.1,1513.24 1593.01,1519.7 1593.01,1527.7C1593.01,1534.59 1591.23,1540.99 1587.66,1546.9C1584.09,1552.81 1578.86,1557.52 1571.96,1561.02C1565.07,1564.53 1556.89,1566.29 1547.41,1566.29ZM861.966,1566.29C849.759,1566.29 838.549,1563.45 828.335,1557.79C818.121,1552.13 810.024,1544.28 804.046,1534.25C798.067,1524.22 795.077,1512.87 795.077,1500.19C795.077,1487.64 798.067,1476.35 804.046,1466.31C810.024,1456.28 818.121,1448.44 828.335,1442.78C838.549,1437.11 849.759,1434.28 861.966,1434.28C874.297,1434.28 885.539,1437.11 895.69,1442.78C905.842,1448.44 913.876,1456.28 919.792,1466.31C925.709,1476.35 928.667,1487.64 928.667,1500.19C928.667,1512.87 925.709,1524.22 919.792,1534.25C913.876,1544.28 905.811,1552.13 895.597,1557.79C885.383,1563.45 874.173,1566.29 861.966,1566.29ZM1005.14,1545.29L1048.64,1545.29L1048.64,1566.29L978.667,1566.29L978.667,1434.28L1005.14,1434.28L1005.14,1545.29ZM1161.42,1464.88L1126.44,1566.29L1098.64,1566.29L1146.11,1434.28L1176.93,1434.28L1224.4,1566.29L1196.41,1566.29M861.966,1543.21C869.813,1543.21 876.726,1541.45 882.705,1537.95C888.684,1534.44 893.355,1529.42 896.718,1522.9C900.081,1516.38 901.762,1508.81 901.762,1500.19C901.762,1491.58 900.081,1484.04 896.718,1477.58C893.355,1471.11 888.684,1466.16 882.705,1462.71C876.726,1459.27 869.813,1457.55 861.966,1457.55C854.118,1457.55 847.174,1459.27 841.133,1462.71C835.092,1466.16 830.39,1471.11 827.027,1477.58C823.664,1484.04 821.982,1491.58 821.982,1500.19C821.982,1508.81 823.664,1516.38 827.027,1522.9C830.39,1529.42 835.092,1534.44 841.133,1537.95C847.174,1541.45 854.118,1543.21 861.966,1543.21ZM1274.4,1434.28L1323.95,1434.28C1334.16,1434.28 1342.86,1436.08 1350.05,1439.67C1357.23,1443.27 1362.62,1448.12 1366.22,1454.23C1369.81,1460.35 1371.61,1467.19 1371.61,1474.75C1371.61,1483.45 1369.08,1491.3 1364.04,1498.3C1359,1505.3 1351.5,1510.12 1341.54,1512.77L1373.12,1566.29L1342.48,1566.29L1313.36,1514.85L1300.88,1514.85L1300.88,1566.29L1274.4,1566.29L1274.4,1494.99L1323,1494.99C1330.19,1494.99 1335.55,1493.26 1339.08,1489.79C1342.61,1486.32 1344.37,1481.5 1344.37,1475.32C1344.37,1469.27 1342.61,1464.57 1339.08,1461.23C1335.55,1457.89 1330.19,1456.22 1323,1456.22L1274.4,1456.22L1274.4,1434.28ZM648.818,1434.28L697.421,1434.28C707.633,1434.28 716.332,1436.05 723.518,1439.58C730.705,1443.11 736.094,1447.96 739.688,1454.14C743.281,1460.32 745.077,1467.32 745.077,1475.13C745.077,1482.19 743.407,1488.81 740.066,1494.99C736.725,1501.17 731.493,1506.15 724.369,1509.93C717.246,1513.71 708.263,1515.6 697.421,1515.6L675.294,1515.6L675.294,1566.29L648.818,1566.29L648.818,1494.23L696.286,1494.23C703.598,1494.23 709.02,1492.56 712.55,1489.22C716.08,1485.88 717.845,1481.18 717.845,1475.13C717.845,1462.27 710.659,1455.84 696.286,1455.84L648.818,1455.84L648.818,1434.28Z" style="fill:white;fill-rule:nonzero;"/>
        </g>
    </g>
</svg>
